<mxfile host="app.diagrams.net" modified="2023-08-15T15:06:40.699Z" agent="Mozilla/5.0 (Windows NT 10.0; Win64; x64) AppleWebKit/537.36 (KHTML, like Gecko) Chrome/115.0.0.0 Safari/537.36" etag="SCerZewOHo81K1ItVZN5" version="21.6.8" type="github">
  <diagram name="Page-1" id="pGMCr8xcoiOQ9zS5nHSf">
    <mxGraphModel dx="880" dy="482" grid="1" gridSize="10" guides="1" tooltips="1" connect="1" arrows="1" fold="1" page="1" pageScale="1" pageWidth="850" pageHeight="1100" math="0" shadow="0">
      <root>
        <mxCell id="0" />
        <mxCell id="1" parent="0" />
        <mxCell id="3gYLIpUTUrTI8WtMbOjT-1" value="Consultant" style="rounded=0;whiteSpace=wrap;html=1;" vertex="1" parent="1">
          <mxGeometry x="130" y="140" width="120" height="60" as="geometry" />
        </mxCell>
        <mxCell id="3gYLIpUTUrTI8WtMbOjT-2" value="JobSeeker" style="rounded=0;whiteSpace=wrap;html=1;" vertex="1" parent="1">
          <mxGeometry x="590" y="120" width="120" height="60" as="geometry" />
        </mxCell>
        <mxCell id="3gYLIpUTUrTI8WtMbOjT-3" value="Appointment" style="rounded=0;whiteSpace=wrap;html=1;" vertex="1" parent="1">
          <mxGeometry x="250" y="320" width="120" height="60" as="geometry" />
        </mxCell>
        <mxCell id="3gYLIpUTUrTI8WtMbOjT-4" value="name" style="ellipse;whiteSpace=wrap;html=1;" vertex="1" parent="1">
          <mxGeometry x="570" y="50" width="80" height="40" as="geometry" />
        </mxCell>
        <mxCell id="3gYLIpUTUrTI8WtMbOjT-5" value="Age" style="ellipse;whiteSpace=wrap;html=1;" vertex="1" parent="1">
          <mxGeometry x="670" y="50" width="80" height="40" as="geometry" />
        </mxCell>
        <mxCell id="3gYLIpUTUrTI8WtMbOjT-6" value="Telephoe" style="ellipse;whiteSpace=wrap;html=1;" vertex="1" parent="1">
          <mxGeometry x="740" y="100" width="80" height="40" as="geometry" />
        </mxCell>
      </root>
    </mxGraphModel>
  </diagram>
</mxfile>
